<svg xmlns="http://www.w3.org/2000/svg" width="100" height="20"><path d="M15.2 5.8c-1.7.1-3.4.8-4.5 2.2l1.7 1.6c1-.9 2.3-1.4 3.6-1.2 1.4 0 2.6 1.1 2.6 2.6v.4s-2.5.2-4.4.5c-2.7.1-4.2 1.6-4.2 3.9s1.9 4.2 4.2 4.2h.3c1.6 0 3.1-.8 4.1-2.1v1.4h2.6v-8.6c0-2.6-1.9-5.1-6-4.9zm-1 11.8c-1 0-1.8-.8-1.8-1.8 0-.9.9-1.5 1.8-1.8 1.5-.3 2.9-.5 4.4-.5-.1 2.4-2 4.2-4.4 4.1zM66.7 5.7c-1.8 0-3.5.7-4.7 2-1.3 1.4-1.9 3.3-1.8 5.3v.1c-.1 1.8.6 3.6 1.8 5 1.2 1.3 3 2 4.8 1.9 1.9 0 3.8-.7 5.1-2.2l-1.7-1.6c-.9.9-2.1 1.3-3.4 1.3-2 .2-3.8-1.3-4-3.3v-.4h10v-.3-.9c.1-1.8-.5-3.6-1.7-5-1.1-1.2-2.7-1.9-4.4-1.9zm-3.8 5.9l.1-.7c.2-.6.5-1.2 1-1.6.7-.7 1.7-1 2.7-1 1.6 0 3 1.1 3.3 2.7l.1.6h-7.2zm-36.3 3.3V0H24v14.9c0 2.6 1.4 4.2 3.1 4.6 1 .1 1.9.1 2.9-.1V17c-.5.1-1 .1-1.4.1-1.6 0-2-1.1-2-2.2zm-21.4 0V8.3h3.4V5.7H5.2v-4H2.6v4H0v2.6h2.6v6.6c0 2.6 1.4 4.2 3.1 4.6 1 .1 2 .1 3-.1V17c-.5.1-1 .1-1.5.1-1.6 0-2-1.1-2-2.2zm38.6-8.5H40l-5.5 5.4V0H32v19.3h2.6v-3.9l1.2-1.1 5.1 5.1h3.7l-7-6.9 6.2-6.1zm36.8 5.4c-1-.3-3.5-.8-3.5-2 0-.9.7-1.6 2.2-1.6 1.3 0 2.6.5 3.5 1.4l1.8-1.7c-1.4-1.3-3.3-2-5.2-2-2.4 0-4.8 1.5-4.8 4.2 0 2.4 2.6 3.2 4 3.7l2.5.9c.8.3 1.2.8 1.2 1.4 0 1.1-1.2 1.9-2.9 1.8-1.3 0-2.6-.5-3.6-1.4L74.1 18c1.4 1.3 3.3 2.1 5.2 2 2.7 0 5.7-1.5 5.7-4.2s-3-3.6-4.4-4zM55.4 7.7s-.2-.4-1.4-1.2c-.9-.5-1.9-.8-2.9-.8-3.6 0-6.5 3.2-6.5 7.2S47.5 20 51 20c1 0 1.9-.2 2.8-.6.7-.3 1.2-.8 1.5-1.5v1.4H58V0h-2.6v7.7zm0 4.9c.1 2.5-1.8 4.6-4.3 4.8-2.3-.1-4.2-2.1-4.1-4.4v-.1c-.2-2.3 1.5-4.4 3.8-4.6s4.4 1.5 4.6 3.8v.5zm37.6-.1l6.2-6h-3.7L90 11.8V0h-2.6v19.3H90v-3.9l1.2-1.1 5.1 5.1h3.7l-7-6.9z" fill="#fff"/></svg>